<?xml version="1.0" encoding="UTF-8" standalone="no"?>
<svg id="Layer_1" data-name="Layer 1" xmlns="http://www.w3.org/2000/svg" viewBox="0 0 128 128"><defs><style>.cls-1{fill:#8d4a15;}.cls-2{fill:#a3571f;}.cls-3{fill:#8f4a03;}.cls-4{fill:#ec297b;}.cls-5{fill:#bc6f35;}.cls-6{fill:#fff;}.cls-7{fill:#231f20;}</style></defs><title>Artboard 1</title><path class="cls-1" d="M83.55,95.55s2.09,2.54,3.09,2.88a5,5,0,0,0,3-.29,18.59,18.59,0,0,0,2.78-2.88s-3,.88-3.91.63c-.61-.17-1.86-1-2-1.61a4.62,4.62,0,0,1,1.24-2.74,33,33,0,0,1,3.15-2.43s-2.76-.9-3.63-.6c-1.31.46-3.7,4.13-3.7,4.13"/><path class="cls-2" d="M67.35,24.53A48.53,48.53,0,0,0,50.54,30C47.16,32,40.6,36.55,38.28,39.69,34.76,44.48,30.6,56.9,30.6,56.9L31.24,63l6.23,10.68,16.23-5.3S53,54,54.91,49.73c3.62-8.25,24.87-26.08,24.87-26.08"/><path class="cls-3" d="M77.35,24.62S68.21,33,64.41,36.22c-2.91,2.5-8.37,8.57-10.14,12-1.53,2.93-2.16,9.48-2.13,12.78a41.18,41.18,0,0,1-.21,4.2l-.65.69L32.19,63.55,39.82,41l2.42,2.55,0-4L45,41.84l-.87-5.12s9.59-6.17,13.09-7.62c3.07-1.27,12.87-3.4,12.87-3.4Z"/><path class="cls-1" d="M69,92.47s6.25,4.52,8.73,4.89c1.81.27,7.17-1.56,7.17-1.56V92.7H78.31l-3-1.55Z"/><polyline class="cls-2" points="40.3 65.94 50.38 75.44 57.56 69.43 49.41 63.61 43.01 54.73"/><path class="cls-2" d="M89.93,98.15s1.32,3,2.19,3.62a5.06,5.06,0,0,0,3,.54,18.27,18.27,0,0,0,3.45-2s-3.08,0-3.93-.46c-.54-.32-1.52-1.45-1.45-2.08s1.3-1.91,1.94-2.3A32.64,32.64,0,0,1,98.79,94s-2.41-1.63-3.33-1.57c-1.38.08-4.69,3-4.69,3"/><path class="cls-2" d="M83.11,88.86s2.68,4.43,4.07,5.39A16.1,16.1,0,0,0,91,95.38l-.83,2.75a29.86,29.86,0,0,1-4.9-.77c-2.56-1-9.11-6.21-9.11-6.21Z"/><path class="cls-4" d="M25.58,70.65c-2,5.37-8.21,10.66-8.21,10.66"/><path class="cls-2" d="M108.88,36.57c-11.39-3.37-16.75-3.38-22.4-2.86-5,.47-15.09,2.3-19.47,4.73-6.68,3.71-22.82,20.29-22.82,20.29L30.56,65.18,47.87,77.7l21.77,2.5S76.56,63.05,81,59.05c8.64-7.69,43-17.13,43-17.13"/><path class="cls-2" d="M70.86,77.3l11.62,4L91,85.91s-16.13.64-21.29-.67c-3.87-1-14.25-7.2-14.25-7.2"/><path class="cls-3" d="M120.65,41.75s-15.11,4.83-21.3,6.61C94.62,49.72,85,53.89,81.12,56.91c-3.35,2.6-7.59,9.9-9.32,13.77-1,2.27-2.5,4.79-2.5,4.79l-1.12.46L47.14,63l21-22.25,1.46,4.27,2.09-4.64,2.07,4.14,1.71-6.44s14.49-2.06,19.35-1.88c4.27.16,16.84,2.9,16.84,2.9Z"/><path class="cls-5" d="M62.36,34.91l-12,10.67s-4.23,4-5.24,5.62c-1.34,2.2-3.49,9.7-3.49,9.7l-1.35,5-1.94,4-2.7,5.52L30.6,78l-21,10.28s7.63-6.58,9.7-8.92A34.33,34.33,0,0,0,26,69.82c.29-.68-1.24-1-2.92-.2-1.49.73-7.8,4.65-9.31,5.82C11.63,77.06,5,84.56,5,84.56s2.5-6.89,3.49-9.12a53.05,53.05,0,0,1,9.7-14.64C20.84,58,30.3,51.22,30.3,51.22s10-7.74,14.84-9.91"/><path class="cls-5" d="M58,79.32c-5.24-1.83-17.7-13.38-17.7-13.38l-4.64,9.5S39,82.35,50.38,88.86c5.72,3.27,14.42,3.56,17.51,3.84,4,.37,15.9-3.3,15.9-3.3L91,85.91,72.2,83.49"/><circle class="cls-6" cx="25.58" cy="61.57" r="2.72"/><path class="cls-7" d="M26.57,62.06a1.46,1.46,0,1,1-1.46-1.45A1.45,1.45,0,0,1,26.57,62.06Z"/></svg>